<?xml version="1.0" standalone="no"?>
<!DOCTYPE svg PUBLIC "-//W3C//DTD SVG 20010904//EN"
 "http://www.w3.org/TR/2001/REC-SVG-20010904/DTD/svg10.dtd">
<svg version="1.0" xmlns="http://www.w3.org/2000/svg"
 width="202.000000pt" height="249.000000pt" viewBox="0 0 202.000000 249.000000"
 preserveAspectRatio="xMidYMid meet">

<g transform="translate(0.000000,249.000000) scale(0.100000,-0.100000)"
fill="#000000" stroke="none">
<path d="M500 2150 l-495 -178 2 -28 c1 -16 34 -315 74 -664 60 -532 75 -638
89 -651 10 -8 203 -118 429 -243 l411 -228 411 228 c226 125 419 235 429 243
14 13 29 119 89 651 40 349 73 648 74 663 l2 29 -499 179 c-274 98 -504 179
-510 178 -6 0 -234 -81 -506 -179z m822 -753 c169 -381 310 -700 313 -709 7
-17 -3 -18 -111 -18 l-119 0 -63 160 -64 160 -268 0 -268 0 -64 -160 -63 -160
-118 0 c-91 0 -118 3 -115 13 13 36 624 1406 628 1406 3 0 143 -311 312 -692z"/>
<path d="M920 1414 c-47 -113 -86 -210 -88 -215 -2 -5 73 -9 178 -9 105 0 180
4 178 9 -23 64 -174 421 -178 421 -3 0 -43 -93 -90 -206z"/>
</g>
</svg>
