<?xml version="1.0" standalone="no"?>
<!DOCTYPE svg PUBLIC "-//W3C//DTD SVG 20010904//EN"
 "http://www.w3.org/TR/2001/REC-SVG-20010904/DTD/svg10.dtd">
<svg version="1.0" xmlns="http://www.w3.org/2000/svg"
 width="240.000000pt" height="237.000000pt" viewBox="0 0 240.000000 237.000000"
 preserveAspectRatio="xMidYMid meet">

<g transform="translate(0.000000,237.000000) scale(0.100000,-0.100000)"
fill="#000000" stroke="none">
<path d="M717 2273 c-4 -3 -7 -44 -7 -90 0 -64 -3 -83 -14 -83 -21 0 -26 -23
-26 -121 l0 -89 95 0 96 0 -3 103 c-3 97 -4 102 -25 105 -22 3 -23 8 -23 93
l0 89 -43 0 c-24 0 -47 -3 -50 -7z"/>
<path d="M1000 2190 c0 -83 -2 -90 -20 -90 -26 0 -32 -26 -28 -125 l3 -80 98
-3 97 -3 0 90 c0 103 -5 121 -31 121 -17 0 -19 8 -19 90 l0 90 -50 0 -50 0 0
-90z"/>
<path d="M1290 2190 c0 -82 -2 -90 -19 -90 -26 0 -31 -18 -31 -121 l0 -89 85
0 c47 0 88 0 93 0 4 0 7 46 7 103 0 98 -1 102 -22 105 -22 3 -23 8 -23 93 l0
89 -45 0 -45 0 0 -90z"/>
<path d="M1570 2192 c0 -81 -2 -88 -22 -97 -21 -9 -23 -17 -26 -107 l-3 -98
96 0 96 0 -3 103 c-3 97 -4 102 -25 105 -22 3 -23 8 -23 93 l0 89 -45 0 -45 0
0 -88z"/>
<path d="M576 1804 c-14 -14 -16 -82 -16 -604 l0 -589 22 -15 c20 -14 95 -16
614 -16 558 0 592 1 607 18 15 17 17 74 17 595 0 348 -4 586 -10 602 l-10 25
-604 0 c-536 0 -606 -2 -620 -16z m679 -88 c42 -18 57 -59 31 -84 -16 -16 -18
-16 -31 3 -29 41 -37 46 -73 43 -32 -3 -37 -7 -37 -28 0 -20 7 -26 45 -37 102
-30 120 -46 120 -108 0 -53 -45 -85 -122 -85 -54 0 -63 3 -89 31 -32 34 -37
64 -14 73 22 8 43 -3 50 -25 14 -43 107 -44 113 -2 4 30 -19 48 -82 62 -79 17
-104 60 -75 125 20 43 99 59 164 32z m-230 -6 c16 -26 -18 -40 -92 -40 l-74 0
3 -32 3 -33 62 2 c46 2 66 -1 78 -13 24 -24 8 -33 -70 -36 l-70 -3 -3 -42 -3
-43 75 0 c83 0 106 -6 106 -26 0 -20 -33 -25 -140 -22 l-95 3 -3 134 c-1 74 0
141 2 148 7 16 211 19 221 3z m545 -10 c67 -67 12 -160 -97 -160 l-42 0 -3
-57 c-3 -57 -3 -58 -33 -58 l-30 0 -3 134 c-1 74 0 141 2 148 4 9 31 13 96 13
76 0 93 -3 110 -20z m-707 -489 c13 -5 30 -24 37 -42 12 -28 11 -36 -4 -62 -9
-17 -13 -33 -8 -36 5 -3 16 -19 25 -36 14 -27 14 -33 -4 -68 -33 -64 -115 -78
-171 -28 -41 37 -45 93 -8 123 l23 19 -21 20 c-66 61 36 146 131 110z m260 0
c30 -12 52 -61 42 -98 -3 -15 -31 -51 -61 -79 -30 -29 -54 -55 -54 -58 0 -3
19 -6 43 -6 80 0 114 -25 68 -50 -25 -13 -157 -13 -182 0 -28 16 -23 46 12 77
115 102 127 119 113 157 -14 35 -94 9 -94 -30 0 -10 -8 -14 -22 -12 -35 5 -34
41 1 77 24 24 39 31 70 31 22 0 51 -4 64 -9z m274 -17 c33 -45 -4 -76 -42 -34
-10 11 -23 20 -28 20 -20 0 -57 -44 -57 -67 0 -20 3 -22 19 -13 23 12 81 13
96 2 22 -15 45 -63 45 -91 0 -20 -11 -41 -35 -67 -32 -34 -38 -36 -80 -32 -34
4 -51 13 -68 34 -32 40 -36 52 -36 125 -1 55 3 71 24 100 14 19 34 37 43 41
30 13 105 2 119 -18z m250 0 c17 -23 17 -54 -1 -54 -7 0 -25 9 -39 20 -14 11
-30 20 -35 20 -16 0 -52 -50 -52 -72 0 -15 3 -17 19 -8 67 35 141 -11 141 -87
-1 -26 -9 -47 -27 -68 -23 -26 -33 -30 -78 -30 -45 0 -55 4 -78 30 -15 17 -29
45 -33 63 -10 49 2 139 20 158 9 8 16 20 16 25 0 32 124 35 147 3z m17 -365
c51 -40 21 -119 -46 -119 -64 0 -91 69 -46 117 27 29 57 29 92 2z"/>
<path d="M1434 1665 c-3 -7 -4 -28 -2 -47 3 -28 7 -33 32 -36 19 -2 36 4 52
19 41 38 27 63 -39 72 -26 3 -40 1 -43 -8z"/>
<path d="M788 1169 c-28 -16 -23 -57 7 -65 37 -9 55 2 55 35 0 38 -27 51 -62
30z"/>
<path d="M775 1040 c-34 -37 4 -96 53 -83 47 12 36 103 -11 103 -13 0 -32 -9
-42 -20z"/>
<path d="M1287 1052 c-24 -26 -21 -49 8 -78 20 -20 29 -23 44 -15 42 23 33
111 -12 111 -13 0 -31 -8 -40 -18z"/>
<path d="M1534 1045 c-15 -22 -15 -29 -3 -51 21 -40 45 -48 69 -24 11 11 20
29 20 41 0 59 -55 81 -86 34z"/>
<path d="M298 1698 c-3 -22 -9 -23 -98 -28 l-95 -5 0 -45 0 -45 98 -3 c89 -2
97 -4 97 -22 0 -19 7 -20 100 -20 l100 0 0 95 0 95 -99 0 c-96 0 -100 -1 -103
-22z"/>
<path d="M1890 1625 l0 -95 100 0 c93 0 100 1 100 20 0 18 8 20 98 22 l97 3 0
45 0 45 -97 3 c-97 3 -98 3 -98 27 0 25 0 25 -100 25 l-100 0 0 -95z"/>
<path d="M290 1405 c-9 -24 -13 -25 -100 -25 l-90 0 0 -40 0 -40 84 0 c97 0
116 -5 116 -31 0 -17 9 -19 100 -19 l100 0 0 90 0 90 -100 0 c-98 0 -101 -1
-110 -25z"/>
<path d="M1890 1340 l0 -90 99 0 c96 0 100 1 103 23 3 21 9 22 98 27 l95 5 0
35 0 35 -95 5 c-89 5 -95 6 -98 28 -3 21 -7 22 -103 22 l-99 0 0 -90z"/>
<path d="M300 1135 c-9 -23 -14 -24 -102 -27 l-93 -3 0 -45 0 -45 95 -5 c89
-5 95 -6 98 -27 3 -22 7 -23 103 -23 l99 0 0 100 0 100 -95 0 c-92 0 -96 -1
-105 -25z"/>
<path d="M1890 1060 l0 -101 98 3 c92 3 97 4 100 25 3 21 9 22 100 25 l97 3 3
39 c2 24 -2 42 -10 47 -7 5 -52 9 -100 9 -82 0 -87 1 -90 23 -3 21 -8 22 -100
25 l-98 3 0 -101z"/>
<path d="M298 848 c-3 -22 -9 -23 -98 -28 l-95 -5 0 -40 0 -40 93 -3 c88 -3
93 -4 102 -27 9 -24 13 -25 105 -25 l95 0 0 95 0 95 -99 0 c-96 0 -100 -1
-103 -22z"/>
<path d="M1890 775 l0 -95 95 0 c93 0 96 1 105 25 9 24 13 25 92 25 46 0 89 4
96 9 8 5 12 22 10 42 l-3 34 -95 5 c-89 5 -95 6 -98 28 -3 21 -7 22 -103 22
l-99 0 0 -95z"/>
<path d="M670 414 c0 -87 2 -96 20 -101 18 -5 20 -14 20 -92 0 -47 4 -92 9
-99 5 -8 23 -12 47 -10 l39 3 5 95 c5 89 6 95 28 98 21 3 22 7 22 103 l0 99
-95 0 -95 0 0 -96z"/>
<path d="M952 413 c3 -93 4 -98 25 -101 21 -3 22 -9 25 -100 l3 -97 45 0 45 0
3 97 c3 91 4 97 25 100 21 3 22 8 25 101 l3 97 -101 0 -101 0 3 -97z"/>
<path d="M1240 411 c0 -96 1 -100 23 -103 21 -3 22 -9 27 -98 l5 -95 40 0 40
0 5 95 c5 89 6 95 28 98 21 3 22 7 22 103 l0 99 -95 0 -95 0 0 -99z"/>
<path d="M1520 411 c0 -96 1 -100 23 -103 21 -3 22 -9 27 -98 l5 -95 40 0 40
0 5 95 c5 89 6 95 28 98 21 3 22 7 22 103 l0 99 -95 0 -95 0 0 -99z"/>
</g>
</svg>
