<?xml version="1.0" standalone="no"?>
<!DOCTYPE svg PUBLIC "-//W3C//DTD SVG 20010904//EN"
 "http://www.w3.org/TR/2001/REC-SVG-20010904/DTD/svg10.dtd">
<svg version="1.0" xmlns="http://www.w3.org/2000/svg"
 width="225.000000pt" height="225.000000pt" viewBox="0 0 225.000000 225.000000"
 preserveAspectRatio="xMidYMid meet">

<g transform="translate(0.000000,225.000000) scale(0.100000,-0.100000)"
fill="#000000" stroke="none">
<path d="M927 2214 c-420 -76 -763 -394 -874 -812 -23 -87 -26 -116 -26 -272
-1 -158 2 -185 25 -272 106 -392 386 -684 763 -793 287 -83 611 -43 867 106
452 264 659 826 486 1318 -37 106 -56 144 -123 247 -165 254 -436 430 -739
479 -112 18 -275 18 -379 -1z m417 -169 c289 -74 538 -282 653 -545 53 -123
68 -204 68 -380 0 -117 -4 -171 -17 -218 -76 -274 -264 -504 -515 -631 -202
-101 -486 -120 -705 -45 -256 87 -484 300 -584 545 -61 149 -82 384 -48 547
59 285 271 551 536 671 201 92 402 110 612 56z"/>
<path d="M1210 1473 l-351 -288 163 -3 c157 -3 164 -2 178 19 55 79 369 559
366 559 -3 0 -162 -129 -356 -287z"/>
<path d="M877 793 c-101 -153 -187 -285 -192 -293 -11 -19 -44 -45 363 289
l343 281 -166 0 -165 0 -183 -277z"/>
</g>
</svg>
